<!--
     Icons created with http://image.online-convert.com/convert-to-svg
     and modified by Martí Cuquet 2015
-->
<svg display="none" width="0" height="0" version="1.1" xmlns="http://www.w3.org/2000/svg" xmlns:xlink="http://www.w3.org/1999/xlink">
<defs>
<symbol id="icon-arxiv" viewBox="0 0 1024 1024">
  <title>arxiv</title>
  <path class="path1" d="M744 850 c-26 -10 -37 -49 -28 -95 9 -50 -19 -61 -77 -32 -31 16 -67 23 -124 25 -75 3 -85 1 -148 -31 l-68 -34 -20 25 c-11 15 -17 32 -13 41 25 60 -1 96 -69 95 -40 -2 -77 -28 -77 -58 0 -6 -15 -18 -33 -26 -30 -14 -32 -18 -32 -69 0 -52 2 -56 34 -75 27 -15 39 -17 61 -9 21 8 31 6 50 -9 21 -17 22 -22 11 -57 -16 -55 -14 -149 5 -205 15 -44 15 -48 -2 -67 -12 -13 -21 -16 -28 -9 -13 13 -62 13 -88 -1 -11 -6 -26 -26 -34 -44 -12 -31 -12 -38 3 -70 10 -21 27 -38 40 -41 12 -4 32 -21 43 -39 26 -42 62 -52 103 -27 27 15 32 25 35 62 2 25 11 55 20 68 l18 23 54 -25 c65 -30 161 -34 225 -10 72 28 82 28 99 1 14 -20 15 -29 5 -50 -35 -77 101 -117 141 -42 7 12 23 28 36 33 12 6 30 22 39 36 15 23 15 30 3 68 -19 55 -54 78 -97 61 -25 -9 -32 -8 -46 7 -14 15 -14 21 5 61 25 56 27 162 4 220 -16 37 -16 42 0 57 11 11 29 15 56 13 75 -5 116 73 69 133 -11 14 -27 26 -35 26 -7 0 -16 11 -20 25 -12 47 -66 67 -120 45z m88 -67 c7 -26 14 -33 33 -33 18 0 26 -7 31 -24 9 -39 1 -59 -28 -67 -24 -6 -28 -4 -28 13 0 10 -6 26 -14 34 -20 19 -32 18 -16 -2 11 -13 9 -20 -18 -47 l-32 -32 -26 27 c-26 26 -26 26 -6 37 23 12 40 70 23 80 -5 4 -8 17 -4 29 5 19 11 23 41 20 31 -3 37 -7 44 -35z m-596 12 c4 -8 1 -22 -6 -30 -14 -17 -6 -46 25 -83 22 -27 22 -28 5 -50 l-18 -22 -41 34 c-23 19 -37 37 -31 41 13 8 13 25 1 25 -5 0 -15 -16 -21 -35 -18 -55 -70 -42 -70 17 0 23 7 32 31 42 19 8 37 26 45 45 11 25 19 31 44 31 18 0 33 -6 36 -15z m346 -95 c91 -26 175 -126 185 -222 20 -196 -164 -346 -348 -283 -59 20 -112 65 -147 123 -23 41 -27 58 -27 127 0 88 14 125 69 183 67 72 169 99 268 72z m-304 -513 c-12 -17 -23 -48 -24 -70 -3 -66 -54 -79 -81 -22 -10 20 -24 35 -34 35 -23 0 -49 27 -49 51 0 23 34 59 55 59 9 0 15 -9 15 -24 0 -13 7 -27 16 -30 12 -4 15 -2 10 9 -3 9 0 15 8 15 7 0 23 11 36 25 l24 25 22 -21 23 -22 -21 -30z m509 35 c24 -20 29 -31 23 -42 -14 -23 -12 -34 4 -20 8 6 16 24 18 38 2 21 8 27 28 27 19 0 26 -7 34 -34 9 -30 7 -36 -13 -52 -13 -11 -29 -19 -36 -19 -7 0 -18 -13 -24 -30 -8 -25 -16 -30 -41 -30 -34 0 -47 19 -32 47 12 22 -12 81 -35 90 -11 4 -9 11 8 29 12 13 25 24 28 24 3 -1 20 -13 38 -28z"></path>
  <path d="M695 428 c16 16 15 38 -1 38 -6 -0 -23 20 -36 45 -57 108 -203 126 -284 36 -19 -21 -38 -48 -42 -60 -3 -12 -13 -21 -21 -21 -21 -0 -17 -28 5 -40 17 -9 23 -4 46 38 33 61 72 85 139 85 74 -0 113 -24 139 -84 23 -50 34 -58 55 -37z"></path>
  <circle cx="420" cy="350" r="40" />
  <circle cx="602" cy="350" r="40" />
</symbol>
<symbol id="icon-librarything" viewBox="0 0 150 150">
  <title>librarything</title>
  <g transform="translate(0.000000,150.000000) scale(0.100000,-0.100000)">
  <path d="M714 1310 c-32 -13 -38 -28 -45 -105 -3 -38 -12 -98 -19 -132 -10 -47 -11 -66 -3 -74 18 -18 59 33 81 99 16 48 25 61 63 84 53 32 109 36 133 9 16 -18 18 -57 21 -432 2 -284 0 -420 -7 -434 -15 -28 -47 -49 -83 -55 -51 -8 -40 -73 12 -70 10 1 90 2 178 3 146 2 160 4 163 20 5 27 -27 57 -59 57 -20 0 -34 8 -45 26 -15 22 -17 63 -15 377 1 194 3 390 4 437 l2 85 54 3 c72 4 97 -3 117 -33 13 -20 14 -33 5 -75 -12 -54 -3 -90 23 -90 14 0 46 57 46 83 0 8 14 47 30 88 17 41 30 87 28 104 -3 29 -5 30 -48 28 -107 -5 -546 -4 -579 1 -20 3 -46 1 -57 -4z"/>
  <path d="M350 1289 c-25 -5 -80 -9 -122 -9 -93 -1 -108 -5 -108 -34 0 -30 18 -46 52 -46 36 0 59 -35 59 -92 -1 -23 1 -209 3 -411 l4 -368 -25 -29 c-14 -17 -35 -30 -47 -30 -34 0 -60 -23 -52 -47 4 -12 14 -23 24 -25 9 -2 105 -1 212 3 107 3 204 3 216 -2 29 -10 145 1 171 17 16 10 22 26 26 66 2 29 10 85 17 123 20 105 19 159 -3 163 -10 2 -19 -4 -23 -15 -11 -36 -67 -149 -97 -195 -37 -59 -73 -73 -163 -63 -73 8 -89 19 -105 78 -16 61 -15 802 1 822 7 8 27 15 44 15 56 0 76 45 34 74 -24 17 -48 18 -118 5z"/>
  </g>
</symbol>
<symbol id="icon-mendeley" viewBox="0 0 150 84">
  <title>mendeley</title>
  <g transform="translate(0.000000,84.000000) scale(0.100000,-0.100000)">
  <path d="M343 809 c-79 -39 -118 -115 -109 -211 19 -197 19 -243 -1 -267 -15 -18 -35 -26 -83 -33 -42 -5 -74 -16 -96 -33 -64 -49 -69 -148 -10 -213 59 -64 171 -54 216 21 24 39 25 84 4 151 -15 46 -15 55 -1 88 39 92 236 118 326 42 40 -34 45 -67 21 -137 -22 -62 -18 -108 14 -153 21 -30 77 -54 125 -54 115 0 188 97 147 194 -37 90 -11 153 75 181 103 35 225 3 264 -68 18 -33 18 -40 6 -84 -23 -80 -24 -109 -5 -148 50 -106 208 -100 250 10 26 70 7 143 -49 180 -13 8 -46 18 -73 21 -100 12 -120 41 -110 156 19 216 19 220 -7 268 -13 25 -43 59 -66 75 -39 27 -50 30 -120 30 -91 0 -127 -19 -187 -97 -85 -112 -140 -113 -237 -7 -35 38 -81 78 -102 89 -53 27 -137 27 -192 -1z m494 -237 c43 -30 66 -85 60 -138 -16 -144 -202 -184 -274 -58 -28 49 -29 96 -2 144 44 77 146 102 216 52z"/>
  </g>
</symbol>
<symbol id="icon-wikiloc" viewBox="0 0 150 150">
  <title>wikiloc</title>
  <g transform="translate(0.000000,150.000000) scale(0.100000,-0.100000)">
  <path d="M595 1455 c-269 -59 -478 -259 -546 -523 -25 -96 -27 -249 -5 -345 9 -38 16 -90 16 -116 0 -132 91 -248 259 -331 67 -33 183 -77 166 -62 -6 4 -36 28 -68 52 -32 24 -70 63 -84 87 -21 37 -25 53 -21 103 5 72 38 126 113 182 93 70 189 95 499 128 194 20 362 76 435 144 24 22 31 25 23 10 -6 -11 -29 -37 -51 -57 -110 -99 -237 -147 -444 -167 -263 -26 -386 -80 -442 -195 -23 -47 -27 -64 -22 -108 14 -110 81 -189 184 -213 143 -34 332 -7 477 68 117 61 246 191 304 308 23 47 49 112 57 145 21 81 29 218 17 285 -7 40 -6 72 2 114 32 155 -43 281 -216 365 -46 22 -96 43 -112 47 -25 6 -21 0 37 -59 81 -83 117 -151 117 -224 0 -58 -15 -96 -50 -128 l-21 -19 8 29 c4 17 8 64 8 105 -1 91 -29 154 -111 253 -58 70 -100 93 -224 122 -79 18 -223 18 -305 0z m322 -39 c74 -20 164 -63 196 -94 74 -71 124 -197 113 -285 -21 -152 -69 -171 -521 -201 -242 -17 -334 -35 -436 -87 -81 -41 -125 -74 -160 -122 -17 -23 -30 -33 -34 -27 -4 7 -9 57 -12 113 -6 133 13 224 71 342 97 194 268 325 486 371 76 16 219 11 297 -10z m514 -678 c-1 -181 -66 -333 -201 -469 -139 -140 -285 -202 -475 -203 -144 0 -207 16 -256 66 -45 47 -74 129 -64 181 16 77 90 149 191 187 30 11 109 27 177 35 242 31 296 42 375 80 102 48 173 103 213 165 18 27 34 48 37 46 2 -3 4 -42 3 -88z"/>
  </g>
</symbol>
</defs>
</svg>
